<svg width="64" height="64" viewBox="0 0 64 64" fill="none" xmlns="http://www.w3.org/2000/svg">
<path d="M49.2787 24.5887V14.8086L32.0831 5.02856L14.8875 14.823V24.4794L5.94287 29.5823V49.1741L23.1385 58.9714L32.0015 53.9203L40.8616 58.9714L58.0572 49.1741V29.5823L49.2787 24.5887ZM52.5575 46.0473L40.8528 52.7179L37.4778 50.7964L40.3224 49.1741V31.2161L34.8373 34.3975V37.9328V39.5004V45.7539V46.0416L30.0721 48.757L23.1326 52.7179L11.428 46.0473V32.7033L14.8991 30.7243V34.386L30.4539 43.2485V37.0008L26.0355 34.4838L20.4717 31.3197L20.3784 31.265V26.0413V17.9268L32.0889 11.2562L43.7936 17.9268V21.462L40.8528 19.7878L38.6145 21.065L24.9163 28.8661L30.4131 31.987L33.3625 30.3072L34.8198 29.4672V29.5046L40.3399 26.3031L40.8266 26.0155L45.1401 28.4749L45.4811 28.6676L49.2524 30.8192L52.5313 32.6889L52.5575 46.0473Z" fill="#FAFAFA"/>
</svg>
